<?xml version="1.0" encoding="UTF-8" standalone="no"?>
<svg
   id="Layer_1"
   style="enable-background:new 0 0 56.7 56.7;"
   version="1.1"
   viewBox="0 0 56.7 56.7"
   xml:space="preserve"
   sodipodi:docname="upwork_icon.svg"
   inkscape:version="1.2.1 (9c6d41e410, 2022-07-14)"
   inkscape:export-filename="upwork_icon.png"
   inkscape:export-xdpi="96"
   inkscape:export-ydpi="96"
   xmlns:inkscape="http://www.inkscape.org/namespaces/inkscape"
   xmlns:sodipodi="http://sodipodi.sourceforge.net/DTD/sodipodi-0.dtd"
   xmlns="http://www.w3.org/2000/svg"
   xmlns:svg="http://www.w3.org/2000/svg"><defs
     id="defs22461" /><sodipodi:namedview
     id="namedview22459"
     pagecolor="#ffffff"
     bordercolor="#666666"
     borderopacity="1.0"
     inkscape:showpageshadow="2"
     inkscape:pageopacity="0.0"
     inkscape:pagecheckerboard="0"
     inkscape:deskcolor="#d1d1d1"
     showgrid="false"
     inkscape:zoom="4.1622574"
     inkscape:cx="24.385806"
     inkscape:cy="28.350001"
     inkscape:window-width="1366"
     inkscape:window-height="705"
     inkscape:window-x="-8"
     inkscape:window-y="-8"
     inkscape:window-maximized="1"
     inkscape:current-layer="Layer_1" /><path
     style="fill:#999999;stroke-width:14.1431;opacity:0"
     id="path26076"
     sodipodi:type="arc"
     sodipodi:cx="28.922132"
     sodipodi:cy="28.537907"
     sodipodi:rx="24.800001"
     sodipodi:ry="24.800001"
     sodipodi:start="0"
     sodipodi:end="6.2831813"
     sodipodi:open="true"
     sodipodi:arc-type="arc"
     d="M 53.722134,28.537907 A 24.800001,24.800001 0 0 1 28.922157,53.337908 24.800001,24.800001 0 0 1 4.1221313,28.537956 24.800001,24.800001 0 0 1 28.922058,3.7379055 24.800001,24.800001 0 0 1 53.722134,28.537807"
     inkscape:export-filename="upwork_icon.png"
     inkscape:export-xdpi="96"
     inkscape:export-ydpi="96" /><path
     id="path26062"
     style="fill:#000000;stroke-width:10"
     d="M 13.099609 18.800781 L 13.099609 28.800781 C 13.099609 32.900773 16.398445 36.199219 20.398438 36.199219 C 24.39843 36.199219 27.699219 32.900773 27.699219 28.800781 L 27.699219 27.099609 C 28.399218 28.599607 29.398439 30.199613 30.398438 31.599609 L 27.998047 42.599609 L 31.898438 42.599609 L 33.599609 34.599609 C 35.099607 35.499607 36.798832 36.099609 38.798828 36.099609 C 42.898812 36.099609 46.298047 32.700381 46.498047 28.400391 C 46.498047 24.300399 43.098032 20.900391 38.998047 20.900391 C 35.498053 20.900391 32.699218 23.200008 31.699219 27 C 29.999222 24.300006 28.698436 21.300777 27.898438 18.800781 L 24.099609 18.800781 L 24.099609 28.800781 C 24.099609 30.800777 22.498043 32.400391 20.498047 32.400391 C 18.498051 32.400391 16.898438 30.800777 16.898438 28.800781 L 16.898438 18.800781 L 13.099609 18.800781 z M 38.798828 24.599609 C 40.898824 24.599609 42.599609 26.300785 42.599609 28.300781 C 42.499609 30.500777 40.699216 32.199219 38.699219 32.199219 C 37.199222 32.199219 35.698044 31.499998 34.498047 30.5 L 34.898438 29 L 34.898438 28.900391 C 35.098437 27.300393 35.998834 24.599609 38.798828 24.599609 z "
     inkscape:export-filename="upwork_icon.png"
     inkscape:export-xdpi="183.96071"
     inkscape:export-ydpi="183.96071" /><g
     id="g26068"
     style="fill:#999999;fill-opacity:1"
     transform="translate(-62.349153,0.037907)"><path
       d="m 38.8,24.6 c -2.8,0 -3.7,2.7 -3.9,4.3 V 29 l -0.4,1.5 c 1.2,1 2.7,1.7 4.2,1.7 2,0 3.8,-1.7 3.9,-3.9 0,-2 -1.7,-3.7 -3.8,-3.7 z"
       id="path26064"
       style="fill:#999999;fill-opacity:1" /><path
       d="M 28.9,3.7 C 15.2,3.7 4.1,14.8 4.1,28.5 4.1,42.2 15.2,53.3 28.9,53.3 42.6,53.3 53.7,42.2 53.7,28.5 53.7,14.8 42.6,3.7 28.9,3.7 Z m 9.9,32.4 c -2,0 -3.7,-0.6 -5.2,-1.5 l -1.7,8 H 28 l 2.4,-11 c -1,-1.4 -2,-3 -2.7,-4.5 v 1.7 c 0,4.1 -3.3,7.4 -7.3,7.4 -4,0 -7.3,-3.3 -7.3,-7.4 v -10 h 3.8 v 10 c 0,2 1.6,3.6 3.6,3.6 2,0 3.6,-1.6 3.6,-3.6 v -10 h 3.8 c 0.8,2.5 2.1,5.5 3.8,8.2 1,-3.8 3.8,-6.1 7.3,-6.1 4.1,0 7.5,3.4 7.5,7.5 -0.2,4.3 -3.6,7.7 -7.7,7.7 z"
       id="path26066"
       style="fill:#999999;fill-opacity:1" /></g></svg>
